# xmcd CD database file
#
# Track frame offsets:
#	150
#	15731
#	29594
#	42299
#	56019
#	70705
#	82196
#	96580
#	125224
#	139980
#	154354
#	167927
#	180056
#	190142
#	203279
#	218854
#	233079
#	245871
#	260496
#	275487
#
# Disc length: 3885 seconds
#
# Revision: 0
# Processed by: cddbd v1.5.2PL0 Copyright (c) Steve Scherf et al.
# Submitted via: CDex 1.70beta2
#
DISCID=2d0f2b14
DTITLE=Various Artist - The Ladies in Blues CD1/4
DYEAR=2006
DGENRE=Blues
TTITLE0=Crazy Blues - Mamie Smith
TTITLE1=Land Of Cotton Blues - Lucille Hegamin
TTITLE2=Nobody Knows The Way I Feel Dis Mornin' - Alberta Hunter
TTITLE3=So Soon This Morning Blues - Ida Cox
TTITLE4=Rocking Chair Blues - Bessie Smith
TTITLE5=Late Last Night - Sara Martin
TTITLE6=See See Rider Blues - Ma Rainey
TTITLE7=Empty Bed Blues - Bessie Smith
TTITLE8=Shipwrecked Blues - Clara Smith
TTITLE9=Nodoby Rocks Me Like My Baby Do - Martha Copland
TTITLE10=Little Rock Blues - Pearl Dickson
TTITLE11=Tallahatchie River Blues - Mattie Delaney
TTITLE12=Rolling Log Blues - Lottie Beaman
TTITLE13=My Handy Man - Ethel Waters
TTITLE14=My Man O' War - Lizzie Miles
TTITLE15=Mr. Moore Blues - Ida May Mack
TTITLE16=Cravin' A Man Blues - Lillian Glinn
TTITLE17=Some Cold Rainy Day - Bertha Chippie Hill
TTITLE18=Can't Be Bothered With No Sheik - Rosa Henderson
TTITLE19=My Handy Man Ain't Handy No More - Edith Wilson
EXTD=YEAR: 2006
EXTT0=
EXTT1=
EXTT2=
EXTT3=
EXTT4=
EXTT5=
EXTT6=
EXTT7=
EXTT8=
EXTT9=
EXTT10=
EXTT11=
EXTT12=
EXTT13=
EXTT14=
EXTT15=
EXTT16=
EXTT17=
EXTT18=
EXTT19=
PLAYORDER=
